<?xml version="1.0" encoding="utf-8"?>
<!-- Generator: Adobe Illustrator 27.2.0, SVG Export Plug-In . SVG Version: 6.00 Build 0)  -->
<svg version="1.1" id="Layer_1" xmlns="http://www.w3.org/2000/svg" xmlns:xlink="http://www.w3.org/1999/xlink" x="0px" y="0px"
	 viewBox="0 0 439.1 106.5" style="enable-background:new 0 0 439.1 106.5;" xml:space="preserve">
<style type="text/css">
	.st0{fill:#808285;}
	.st1{fill:#FFFFFF;}
</style>
<g>
	<g>
		<path class="st0" d="M1.2,48.2v-0.1c0-11.6,9.5-20.8,21.8-20.8c12.3,0,21.7,9.1,21.7,20.7v0.1c0,11.6-9.5,20.8-21.8,20.8
			S1.2,59.8,1.2,48.2z M31.3,48.2v-0.1c0-4.7-3.2-9-8.4-9c-5.1,0-8.3,4.2-8.3,8.9v0.1c0,4.7,3.2,9,8.4,9
			C28.1,57.1,31.3,52.9,31.3,48.2z"/>
		<path class="st0" d="M81.5,48.2v-0.1c0-11.6,9.5-20.8,21.8-20.8c12.3,0,21.7,9.1,21.7,20.7v0.1c0,11.6-9.5,20.8-21.8,20.8
			S81.5,59.8,81.5,48.2z M111.6,48.2v-0.1c0-4.7-3.2-9-8.4-9c-5.1,0-8.3,4.2-8.3,8.9v0.1c0,4.7,3.2,9,8.4,9
			C108.4,57.1,111.6,52.9,111.6,48.2z"/>
	</g>
	<g>
		<path class="st0" d="M130.9,39.8c-1.7,0-3.4-1-4.2-2.6c-4.2-8.4-13.1-13.6-23.2-13.6c0,0,0,0,0,0c-2,0-4-0.7-5.5-2
			C88.4,13.8,76.1,9.5,63.1,9.5c-13,0-25.4,4.4-34.9,12.3C26.8,23,25,23.6,23,23.6c0,0,0,0,0,0c-5.7,0-11.1,1.6-15.6,4.8
			c-2.1,1.5-5.1,1-6.6-1.2c-1.5-2.1-1-5.1,1.2-6.6c5.9-4.2,13-6.4,20.5-6.5C33.7,5,48.1,0,63.1,0c15,0,29.4,5,40.6,14.1
			c13.6,0.1,25.6,7.3,31.4,18.8c1.2,2.3,0.2,5.2-2.1,6.4C132.3,39.6,131.6,39.8,130.9,39.8z M23,14.1L23,14.1
			C23,14.1,23,14.1,23,14.1C23,14.1,23,14.1,23,14.1z"/>
	</g>
	<g>
		<path class="st0" d="M76.9,64.7c-0.4,0-0.9-0.1-1.3-0.2c-3.9-1.1-8.1-1.7-12.5-1.7c-4.3,0-8.5,0.6-12.5,1.7
			c-2.5,0.7-5.1-0.7-5.9-3.3c-0.7-2.5,0.7-5.1,3.3-5.9c4.8-1.4,9.9-2.1,15.1-2.1c5.2,0,10.3,0.7,15.1,2.1c2.5,0.7,4,3.4,3.3,5.9
			C80.9,63.3,79,64.7,76.9,64.7z"/>
	</g>
</g>
<g>
	<path class="st1" d="M153.5,22.4h22.3c8.1,0,13.2,2,16.4,5.2c2.7,2.7,4.2,6.1,4.2,10.8v0.1c0,6.6-3.5,11.3-9,13.9L198,67.9h-17.4
		l-8.6-13h-0.1h-3.1v13h-15.2V22.4z M175.3,44.1c3.6,0,5.9-1.6,5.9-4.4v-0.1c0-2.9-2.3-4.4-5.8-4.4h-6.6v8.9H175.3z"/>
	<path class="st1" d="M214.3,22h15.1l19.2,45.9h-16.5l-2.4-6.1h-16l-2.3,6.1h-16.3L214.3,22z M225.9,51L221.7,40L217.6,51H225.9z"/>
	<path class="st1" d="M250.5,22.4H271c12.1,0,20.4,5.4,20.4,16.2v0.1c0,11-8.4,16.9-20.7,16.9h-4.9v12.4h-15.2V22.4z M269.8,44.7
		c3.9,0,6.5-1.8,6.5-5v-0.1c0-3.3-2.4-5-6.4-5h-4.2v10.2H269.8z"/>
	<path class="st1" d="M293.6,45.3v-0.1c0-13.2,10.9-23.8,24.9-23.8c14.1,0,24.8,10.4,24.8,23.6v0.1c0,13.2-10.9,23.8-24.9,23.8
		C304.4,68.9,293.6,58.5,293.6,45.3z M328,45.3v-0.1c0-5.4-3.7-10.3-9.6-10.3c-5.8,0-9.4,4.8-9.4,10.2v0.1c0,5.4,3.7,10.3,9.6,10.3
		C324.3,55.4,328,50.6,328,45.3z"/>
	<path class="st1" d="M343.4,61.1l8.1-9.7c4.9,3.8,10.6,5.3,16,5.3c2.7,0,3.9-0.7,3.9-2v-0.1c0-1.3-1.4-2-6.3-3
		c-10.2-2.1-19.2-5-19.2-14.7v-0.1c0-8.7,6.8-15.4,19.3-15.4c8.8,0,15.3,2.1,20.6,6.3l-7.4,10.3c-4.3-3.1-9.4-4.5-13.7-4.5
		c-2.3,0-3.3,0.8-3.3,1.9v0.1c0,1.2,1.2,2,6.1,2.9c11.7,2.1,19.5,5.5,19.5,14.7v0.1c0,9.6-7.9,15.4-20.1,15.4
		C357.5,68.8,349.2,66.2,343.4,61.1z"/>
	<path class="st1" d="M389.4,45.3v-0.1c0-13.2,10.9-23.8,24.9-23.8c14.1,0,24.8,10.4,24.8,23.6v0.1c0,13.2-10.9,23.8-24.9,23.8
		C400.1,68.9,389.4,58.5,389.4,45.3z M423.8,45.3v-0.1c0-5.4-3.7-10.3-9.6-10.3c-5.8,0-9.4,4.8-9.4,10.2v0.1
		c0,5.4,3.7,10.3,9.6,10.3C420.1,55.4,423.8,50.6,423.8,45.3z"/>
</g>
<g>
	<path class="st1" d="M160.3,0.2h1.6l6.8,15.1h-1.8l-1.8-4H157l-1.8,4h-1.7L160.3,0.2z M164.5,9.8l-3.4-7.6l-3.4,7.6H164.5z"/>
	<path class="st1" d="M179.4,9V0.3h1.7v8.6c0,3.2,1.7,5.1,4.6,5.1c2.8,0,4.5-1.7,4.5-5V0.3h1.7v8.6c0,4.4-2.5,6.6-6.3,6.6
		C181.9,15.5,179.4,13.2,179.4,9z"/>
	<path class="st1" d="M208.3,1.8h-5V0.3H215v1.6h-5v13.4h-1.7V1.8z"/>
	<path class="st1" d="M224.9,7.8L224.9,7.8c0-4.2,3.1-7.8,7.7-7.8c4.6,0,7.6,3.6,7.6,7.7v0c0,4.1-3.1,7.8-7.7,7.8
		C228,15.5,224.9,11.9,224.9,7.8z M238.5,7.8L238.5,7.8c0-3.5-2.5-6.2-5.9-6.2c-3.4,0-5.9,2.7-5.9,6.2v0c0,3.4,2.5,6.2,5.9,6.2
		C236,14,238.5,11.2,238.5,7.8z"/>
	<path class="st1" d="M266.1,13.1l1.1-1.2c1.6,1.4,3.1,2.1,5.1,2.1c2,0,3.3-1.1,3.3-2.6v0c0-1.4-0.8-2.2-3.9-2.9
		c-3.5-0.7-5-1.9-5-4.3v0c0-2.4,2.1-4.1,4.9-4.1c2.2,0,3.8,0.6,5.3,1.8l-1,1.3c-1.4-1.1-2.8-1.6-4.3-1.6c-2,0-3.2,1.1-3.2,2.4v0
		c0,1.4,0.8,2.2,4.1,2.9c3.3,0.7,4.9,2,4.9,4.2v0c0,2.6-2.1,4.2-5.1,4.2C269.9,15.5,267.9,14.7,266.1,13.1z"/>
	<path class="st1" d="M289.2,0.3h1.7v6.7h8.7V0.3h1.7v15h-1.7V8.5h-8.7v6.8h-1.7V0.3z"/>
	<path class="st1" d="M313.3,7.8L313.3,7.8c0-4.2,3.1-7.8,7.7-7.8s7.6,3.6,7.6,7.7v0c0,4.1-3.1,7.8-7.7,7.8
		C316.4,15.5,313.3,11.9,313.3,7.8z M326.9,7.8L326.9,7.8c0-3.5-2.5-6.2-5.9-6.2c-3.4,0-5.9,2.7-5.9,6.2v0c0,3.4,2.5,6.2,5.9,6.2
		C324.4,14,326.9,11.2,326.9,7.8z"/>
	<path class="st1" d="M340.6,0.3h5.6c3.4,0,5.6,1.8,5.6,4.8v0c0,3.2-2.7,4.9-5.9,4.9h-3.6v5.3h-1.7V0.3z M346,8.4
		c2.5,0,4.1-1.3,4.1-3.3v0c0-2.1-1.6-3.3-4-3.3h-3.8v6.6H346z"/>
	<path class="st1" d="M363.4,0.3h5.6c3.4,0,5.6,1.8,5.6,4.8v0c0,3.2-2.7,4.9-5.9,4.9h-3.6v5.3h-1.7V0.3z M368.8,8.4
		c2.5,0,4.1-1.3,4.1-3.3v0c0-2.1-1.6-3.3-4-3.3h-3.8v6.6H368.8z"/>
	<path class="st1" d="M386.3,0.3h1.7v15h-1.7V0.3z"/>
	<path class="st1" d="M400.8,0.3h1.6l9.5,12v-12h1.7v15h-1.4L402.4,3v12.3h-1.7V0.3z"/>
	<path class="st1" d="M425.5,7.8L425.5,7.8c0-4.2,3-7.8,7.5-7.8c2.5,0,4.1,0.7,5.6,2l-1.1,1.3c-1.2-1-2.4-1.7-4.6-1.7
		c-3.3,0-5.7,2.8-5.7,6.2v0c0,3.6,2.3,6.2,5.9,6.2c1.7,0,3.3-0.7,4.3-1.5V8.8h-4.6V7.2h6.2v6c-1.4,1.2-3.5,2.3-6,2.3
		C428.4,15.5,425.5,12.1,425.5,7.8z"/>
</g>
<g>
	<rect x="224.7" y="80.4" class="st0" width="0.8" height="26"/>
	<g>
		<rect x="438.4" y="80.4" class="st0" width="0.8" height="26"/>
	</g>
	<g>
		<rect x="367.1" y="80.4" class="st0" width="0.8" height="26"/>
	</g>
	<rect x="295.9" y="80.4" class="st0" width="0.8" height="26"/>
	<rect x="153.5" y="80.4" class="st0" width="0.8" height="26"/>
	<path class="st0" d="M215.2,93.4l-1.4-1l-1.1-3c-0.2-0.5-0.7-0.9-1.2-0.9l-15-1l-4.5-3.1c-2.2-1.6-5.1-2.1-7.7-1.5l-3.3,0.8
		c-3.5,0.8-6.9,2.2-10,4c0,0-0.1,0-0.1,0H167l-1.3-1.3c-0.5-0.5-1.4-0.5-2,0c-0.5,0.5-0.5,1.4,0,2l1.7,1.7c0.3,0.3,0.6,0.4,1,0.4
		h0.3c-0.8,0.6-1.6,1.3-2.4,2c-0.3,0.3-0.5,0.6-0.5,1v1.2l-0.9,1.8c-0.1,0.2-0.1,0.4-0.1,0.6c0,1.7,1.4,3.1,3.1,3.1h5.1
		c0.6,2.3,2.7,4,5.2,4c2.5,0,4.5-1.7,5.2-4h17.2c0.6,2.3,2.7,4,5.2,4c2.5,0,4.5-1.7,5.2-4h3.5c1.4,0,2.6-0.9,3-2.3l0.6-2.2
		C216.3,94.9,216,94,215.2,93.4L215.2,93.4z M212.7,97.2c0,0.1-0.2,0.3-0.3,0.3h-3.5c-0.6-2.3-2.7-4-5.2-4c-2.5,0-4.5,1.7-5.2,4
		h-17.2c-0.6-2.3-2.7-4-5.2-4c-2.5,0-4.5,1.7-5.2,4H166c-0.1,0-0.2-0.1-0.3-0.1l0.8-1.7c0.1-0.2,0.1-0.4,0.1-0.6v-0.9
		c4.3-3.7,9.4-6.4,14.9-7.7l3.3-0.8c1.9-0.5,3.9-0.1,5.5,1.1l4.8,3.3c0.2,0.1,0.5,0.2,0.7,0.3l14.5,1l0.9,2.6
		c0.1,0.3,0.3,0.5,0.5,0.7l1.4,0.9L212.7,97.2z M206.3,98.9c0,1.4-1.1,2.6-2.6,2.6s-2.6-1.1-2.6-2.6c0-1.4,1.1-2.6,2.6-2.6
		S206.3,97.5,206.3,98.9L206.3,98.9z M178.8,98.9c0,1.4-1.1,2.6-2.6,2.6c-1.4,0-2.6-1.1-2.6-2.6c0-1.4,1.1-2.6,2.6-2.6
		C177.6,96.3,178.8,97.5,178.8,98.9L178.8,98.9z M178.8,98.9"/>
	<g>
		<path class="st0" d="M355.4,92.7c-0.2-0.3-0.6-0.5-1-0.5h-9.7c-2.7-2.5-6.3-3.9-10-3.9h-7.6c0.6-0.6,2.1-2.2,3.1-2.2h5.1
			c0.5,0,1-0.4,1.2-0.9c0.1-0.5-0.1-1.1-0.5-1.3c-3.6-2.2-7.8-3.4-12-3.4H319c-2.6,0-4.9,1.6-5.8,4.1c-0.1,0.4-0.1,0.8,0.1,1.1
			c0.2,0.3,0.6,0.5,1,0.5h2.9l-5.5,11.9c-1,0.6-2,1.2-2.9,1.9c-0.3,0.2-0.5,0.6-0.5,1v4.4c0,0.7,0.5,1.2,1.2,1.2h28
			c4,0,7.8-1.2,11-3.5c3.3-2.3,5.7-5.5,7-9.2C355.6,93.4,355.6,93,355.4,92.7L355.4,92.7z M337.4,104.1h-26.8v-2.5
			c6.7-4.6,14.6-7,22.7-7h19.2C349.8,100.3,343.9,104.1,337.4,104.1L337.4,104.1z M320.2,85.4c0.2-0.4,0.1-0.8-0.1-1.1
			c-0.2-0.3-0.6-0.6-1-0.6h-2.5c0.7-0.6,1.5-0.9,2.4-0.9h4.8c2,0,3.9,0.3,5.8,0.8c-2.4,0.2-5.1,3.1-5.8,5.4c-0.1,0.4,0,0.8,0.2,1.1
			c0.2,0.3,0.6,0.5,1,0.5h9.7c2.1,0,4.1,0.5,5.9,1.5h-7.2c-6.4,0-12.6,1.4-18.2,4.1L320.2,85.4z M320.2,85.4"/>
		<path class="st0" d="M332.3,97.9h-3.5c-0.7,0-1.2,0.5-1.2,1.2s0.5,1.2,1.2,1.2h3.5c0.7,0,1.2-0.5,1.2-1.2S333,97.9,332.3,97.9
			L332.3,97.9z M332.3,97.9"/>
		<path class="st0" d="M342.5,97.9h-3.5c-0.7,0-1.2,0.5-1.2,1.2s0.5,1.2,1.2,1.2h3.5c0.7,0,1.2-0.5,1.2-1.2S343.1,97.9,342.5,97.9
			L342.5,97.9z M342.5,97.9"/>
	</g>
	<g>
		<path class="st0" d="M379.4,95l1.7-5.2l-0.9-6c-0.1-0.3,0-0.7,0.3-1c0.2-0.3,0.6-0.4,0.9-0.4h2.4c0.4,0,0.8,0.2,1,0.5l3.1,4.6
			h11.3c0-0.1,0-0.1,0.1-0.2l1-2.2c0.2-0.4,0.6-0.7,1.1-0.7h2.1v-0.4h-14.5c-0.7,0-1.2-0.5-1.2-1.2c0-0.7,0.5-1.2,1.2-1.2h14.5v-0.1
			c0-0.7,0.5-1.2,1.2-1.2c0.7,0,1.2,0.5,1.2,1.2v0.1h14.5c0.7,0,1.2,0.5,1.2,1.2c0,0.7-0.5,1.2-1.2,1.2h-14.5v0.4h2.1
			c0.5,0,0.9,0.3,1.1,0.7l1,2.2c0,0.1,0,0.1,0.1,0.2h2.5c3.1,0,6.1,0.9,8.6,2.7c2.5,1.8,4.5,4.2,5.6,7.1c0.2,0.5,0.3,1,0.3,1.5
			c0,2.3-1.9,4.1-4.1,4.1h-1.2v1.1h1.7c0.7,0,1.2,0.5,1.2,1.2c0,0.7-0.5,1.2-1.2,1.2h-15.2c-0.7,0-1.2-0.5-1.2-1.2
			c0-0.7,0.5-1.2,1.2-1.2h1.7V103c-2.6-0.2-4.9-1.3-6.8-3.1l-4.3-4.3l-11.7-1.8l-3.4,2.6c-0.2,0.2-0.5,0.2-0.7,0.2h-2.5
			c-0.4,0-0.7-0.2-1-0.5C379.3,95.8,379.3,95.4,379.4,95L379.4,95z M407,86.9h-5l-0.3,0.7h5.6L407,86.9z M417.4,91v1.9
			c0,0.7,0.6,1.3,1.3,1.3h3.3C420.7,92.8,419.1,91.7,417.4,91L417.4,91z M419.3,104.1V103h-7.1v1.1H419.3z M404.7,98.1
			c1.6,1.6,3.7,2.5,6,2.5h12.1c1,0,1.7-0.8,1.7-1.7c0-0.2,0-0.4-0.1-0.6c-0.2-0.6-0.5-1.2-0.8-1.7c-0.1,0-0.2,0-0.3,0h-4.7
			c-2,0-3.7-1.6-3.7-3.7v-2.7c-0.8-0.2-1.6-0.3-2.5-0.3h-12v3.9L404.7,98.1z M382.6,94.2l3.4-2.6c0.3-0.2,0.6-0.3,0.9-0.2l11.2,1.7
			v-3h-11c-0.4,0-0.8-0.2-1-0.5l-3.1-4.6h-0.3l0.7,4.9c0,0.2,0,0.4,0,0.5l-1.3,3.9H382.6z M382.6,94.2"/>
	</g>
	<path class="st0" d="M275.9,91.4c0.4-0.6,0.6-1.4,0.4-2.3c-0.6-3.1-4-6.2-7.2-7.8c-0.1,0-0.1-0.1-0.2-0.1c-0.1,0-0.2,0-0.3,0.1
		l-1.3,0.8c-0.2,0.1-0.3,0.3-0.3,0.6l0.3,2c1.2,0.8,3.1,2.1,3.4,2.4c0.5,0.4,0.9,1.3,0.5,1.8c-0.2,0.2-0.5,0.3-0.8,0.3
		c-0.4,0-0.9-0.2-1.3-0.5c-0.6-0.5-0.9-0.8-2.3-1.8c-1.4-0.9-2.5-1.2-3.4-1.2c-1.1,0-1.9,0.4-2.7,0.7c-0.1,0.1-0.3,0.1-0.4,0.2
		c-1.3,0.5-3,1.2-3.5,1.4c-0.1,0.1-0.3,0.1-0.5,0.1c0,0,0,0-0.1,0c-0.6,0-2.8-0.2-3.9-0.2c-1.3-0.1-2.1-1-2.6-1.5
		c-0.1-0.1-0.2-0.2-0.2-0.2c-0.4-0.3-0.8-0.7-1.8-1.1c-0.7-0.2-2.6-0.6-4-0.9c-0.6-0.1-1.1-0.2-1.4-0.3c-0.1,0-0.2,0-0.3,0
		c0,0,0,0,0,0c0,0.1-0.1,0.4-0.1,0.5l0,0.1c-0.2,1.8,1.1,3.1,1.4,3.6c1.1,1.2,1.9,1.4,2.6,1.4c0.2,0,0.4,0,0.6,0c0.1,0,0.1,0,0.2,0
		l0,0l0.7,0c2.6,0,5,1.1,6.6,2.9l-1.4,1c-1.3-1.4-3.2-2.2-5.2-2.2c-4,0-7.3,3.3-7.3,7.3s3.3,7.3,7.3,7.3s7.3-3.3,7.3-7.3
		c0-1-0.2-2-0.6-2.9l1.4-1c0.6,1.2,0.9,2.5,0.9,3.8c0,0.1,0,1.6-0.2,4c1.2,0,2.2,0,3.2,0c3.7,0,5.8-0.3,7.2-1.7c1,2.9,3.7,5,6.9,5
		c4,0,7.3-3.3,7.3-7.3C281.1,95.1,278.9,92.3,275.9,91.4z M252.2,98.4c0,2.5-2.1,4.6-4.6,4.6c-2.5,0-4.6-2.1-4.6-4.6
		c0-2.5,2.1-4.6,4.6-4.6c1.1,0,2.1,0.4,2.9,1l-3.1,2.1c-0.8,0.1-1.4,0.7-1.4,1.5c0,0.8,0.7,1.5,1.5,1.5c0.6,0,1.1-0.3,1.3-0.8
		l3.1-2.1C252.2,97.5,252.2,97.9,252.2,98.4z M259.6,99.8c-0.1,0-0.2,0-0.3,0c0-0.8,0-1.3,0-1.4c0-2.9-1.1-5.5-2.8-7.6
		c0.4,0,0.9-0.1,1.3-0.3c0.5-0.2,2.2-0.8,3.5-1.4c0.2-0.1,0.3-0.1,0.5-0.2c0.6-0.3,1.1-0.5,1.6-0.5c0.5,0,1.2,0.2,1.9,0.7
		c1.3,0.9,1.6,1.2,2.1,1.6c0.8,0.7,1.9,1.1,3,1.1c0.6,0,1.1-0.1,1.6-0.3c-1,1.1-2.1,2.2-3.2,3.3c-1.6,1.6-3,3-3.7,3.9
		C264.5,99.4,263.4,99.8,259.6,99.8z M273.8,103c-2.5,0-4.6-2.1-4.6-4.6c0,0,0,0,0-0.1c0.5-0.5,1-1,1.6-1.6c0.2-0.2,0.3-0.3,0.5-0.5
		l1,2.1c0,0,0,0,0,0c0,0.8,0.7,1.5,1.5,1.5c0.8,0,1.5-0.7,1.5-1.5c0-0.5-0.2-0.9-0.6-1.2l-1.4-3c0.1-0.1,0.2-0.2,0.4-0.4
		c0.1,0,0.1,0,0.2,0c2.5,0,4.6,2.1,4.6,4.6C278.4,100.9,276.3,103,273.8,103z"/>
</g>
</svg>
